<svg width="148" height="40" viewBox="0 0 148 40" fill="none" xmlns="http://www.w3.org/2000/svg">
<g filter="url(#filter0_iii_1202_6149)">
<g clip-path="url(#clip0_1202_6149)">
<rect width="40" height="40" rx="12" fill="#BEF264"/>
<rect width="40" height="40" fill="url(#paint0_linear_1202_6149)"/>
<g filter="url(#filter1_d_1202_6149)">
<path d="M14.5 19.5C14.5 16.7386 16.7386 14.5 19.5 14.5C22.2614 14.5 24.5 16.7386 24.5 19.5L29 19.5C29 14.2533 24.7467 10 19.5 10C14.2533 10 10 14.2533 10 19.5C10 24.7467 14.2533 29 19.5 29L19.5 24.5C16.7386 24.5 14.5 22.2614 14.5 19.5Z" fill="url(#paint1_linear_1202_6149)"/>
<path opacity="0.5" d="M24.5 19.5C24.5 22.2614 26.7386 24.5 29.5 24.5V29C24.2533 29 20 24.7467 20 19.5H24.5Z" fill="url(#paint2_linear_1202_6149)"/>
</g>
</g>
</g>
<path d="M139.386 16.9055C139.048 17.4515 138.879 18.1665 138.879 19.0245V19.9995H146.666V17.8025H141.739C141.739 17.5945 141.804 17.4255 141.947 17.2695C142.09 17.1135 142.272 16.9835 142.506 16.8665C142.727 16.7625 143.052 16.6195 143.468 16.4505C144.131 16.1905 144.677 15.9305 145.106 15.6835C145.522 15.4495 145.899 15.0985 146.211 14.6435C146.523 14.1885 146.679 13.6165 146.679 12.9145C146.679 11.8225 146.341 10.9905 145.665 10.4055C144.989 9.82048 144.04 9.52148 142.818 9.52148C141.557 9.52148 140.569 9.83348 139.867 10.4445C139.152 11.0685 138.801 11.9265 138.801 13.0185C138.801 13.1225 138.801 13.2655 138.827 13.4735H141.141C141.115 13.3175 141.115 13.2135 141.115 13.1355C141.115 12.6935 141.258 12.3425 141.557 12.0825C141.843 11.8355 142.259 11.7055 142.779 11.7055C143.26 11.7055 143.65 11.8355 143.936 12.0955C144.222 12.3555 144.365 12.6805 144.365 13.0445C144.365 13.3305 144.274 13.5775 144.105 13.7855C143.936 13.9935 143.715 14.1625 143.455 14.2925C143.195 14.4355 142.831 14.6045 142.363 14.7865C141.635 15.0985 141.05 15.3845 140.582 15.6705C140.114 15.9565 139.724 16.3595 139.386 16.9055Z" fill="#022C22"/>
<path fill-rule="evenodd" clip-rule="evenodd" d="M59.8672 26.6324L61.065 27.8245L62.8633 26.0045L61.6909 24.8321C61.8784 24.5578 62.0489 24.2661 62.2025 23.957C62.8164 22.7364 63.1233 21.3173 63.1233 19.6995C63.1233 18.0817 62.8164 16.6625 62.2025 15.442C61.5958 14.2214 60.7256 13.2717 59.5917 12.5928C58.465 11.9139 57.1217 11.5745 55.5617 11.5745C54.0017 11.5745 52.6547 11.9139 51.5208 12.5928C50.3942 13.2717 49.5239 14.2214 48.91 15.442C48.3033 16.6625 48 18.0817 48 19.6995C48 21.3173 48.3033 22.7364 48.91 23.957C49.5239 25.1775 50.3942 26.1273 51.5208 26.8062C52.6547 27.485 54.0017 27.8245 55.5617 27.8245C57.1217 27.8245 58.465 27.485 59.5917 26.8062C59.6853 26.7501 59.7772 26.6922 59.8672 26.6324ZM59.4734 22.6146L58.335 21.4762L56.515 23.2962L57.7865 24.5616C57.1733 24.9007 56.4317 25.0639 55.5617 25.0512C54.5722 25.0367 53.7489 24.8092 53.0917 24.3687C52.4344 23.9281 51.9397 23.3106 51.6075 22.5162C51.2825 21.7217 51.12 20.7828 51.12 19.6995C51.12 18.6162 51.2825 17.67 51.6075 16.8612C51.9397 16.0523 52.4344 15.4275 53.0917 14.987C53.7489 14.5464 54.5722 14.3334 55.5617 14.3478C56.5511 14.3623 57.3744 14.5898 58.0317 15.0303C58.6889 15.4709 59.18 16.0884 59.505 16.8828C59.8372 17.6773 60.0033 18.6162 60.0033 19.6995C60.0033 20.7828 59.8372 21.7289 59.505 22.5378C59.4946 22.5636 59.4841 22.5892 59.4734 22.6146Z" fill="#022C22"/>
<path d="M66.0984 27.3803C66.6762 27.6909 67.4237 27.8462 68.3409 27.8462C69.4893 27.8462 70.439 27.597 71.1901 27.0987C71.5466 26.8644 71.8607 26.5959 72.1326 26.293V27.4995H74.7326V15.7995H71.7643V21.7362C71.7643 22.4584 71.6812 23.0434 71.5151 23.4912C71.3562 23.9317 71.1504 24.2675 70.8976 24.4987C70.6448 24.7225 70.374 24.8742 70.0851 24.9537C69.7962 25.0331 69.5254 25.0728 69.2726 25.0728C68.6443 25.0728 68.1568 24.932 67.8101 24.6503C67.4707 24.3687 67.2251 24.0184 67.0734 23.5995C66.9218 23.1806 66.8315 22.7653 66.8026 22.3537C66.7737 21.9348 66.7593 21.5917 66.7593 21.3245V15.7995H63.7693V22.3645C63.7693 22.5595 63.7837 22.87 63.8126 23.2962C63.8415 23.7223 63.9245 24.1953 64.0618 24.7153C64.199 25.2281 64.4265 25.7228 64.7443 26.1995C65.0693 26.6762 65.5207 27.0698 66.0984 27.3803Z" fill="#022C22"/>
<path fill-rule="evenodd" clip-rule="evenodd" d="M79.7104 27.8245C78.8726 27.8245 78.1612 27.6656 77.5762 27.3478C76.9984 27.0228 76.5579 26.5931 76.2545 26.0587C75.9584 25.517 75.8104 24.9212 75.8104 24.2712C75.8104 23.7295 75.8934 23.2348 76.0595 22.787C76.2256 22.3392 76.4929 21.9456 76.8612 21.6062C77.2367 21.2595 77.7387 20.9706 78.367 20.7395C78.8004 20.5806 79.3167 20.4398 79.9162 20.317C80.5156 20.1942 81.1945 20.0787 81.9529 19.9703C82.3992 19.9023 82.8718 19.8305 83.3707 19.755C83.3147 19.2727 83.1562 18.9039 82.8954 18.6487C82.5631 18.3237 82.007 18.1612 81.227 18.1612C80.7937 18.1612 80.3423 18.2659 79.8729 18.4753C79.4034 18.6848 79.0748 19.0567 78.887 19.5912L76.222 18.7462C76.5181 17.7784 77.0742 16.9912 77.8904 16.3845C78.7065 15.7778 79.8187 15.4745 81.227 15.4745C82.2598 15.4745 83.177 15.6334 83.9787 15.9512C84.7804 16.2689 85.387 16.8178 85.7987 17.5978C86.0298 18.0312 86.167 18.4645 86.2104 18.8978C86.2537 19.3312 86.2754 19.815 86.2754 20.3495V27.4995H83.697V26.0633C83.2315 26.6117 82.7368 27.0254 82.2129 27.3045C81.5556 27.6512 80.7215 27.8245 79.7104 27.8245ZM80.3387 25.5062C80.8804 25.5062 81.3354 25.4123 81.7037 25.2245C82.0792 25.0295 82.3754 24.8092 82.592 24.5637C82.8159 24.3181 82.9676 24.1123 83.047 23.9462C83.1987 23.6284 83.2854 23.26 83.307 22.8412C83.3246 22.5815 83.3369 22.3487 83.3437 22.1427C82.8585 22.2256 82.4418 22.2995 82.0937 22.3645C81.552 22.4584 81.1151 22.545 80.7829 22.6245C80.4506 22.7039 80.1581 22.7906 79.9054 22.8845C79.6165 23 79.3817 23.1264 79.2012 23.2637C79.0279 23.3937 78.8979 23.5381 78.8112 23.697C78.7317 23.8559 78.692 24.0328 78.692 24.2278C78.692 24.495 78.757 24.7262 78.887 24.9212C79.0242 25.1089 79.2156 25.2534 79.4612 25.3545C79.7067 25.4556 79.9992 25.5062 80.3387 25.5062Z" fill="#022C22"/>
<path d="M95.7222 20.9562C95.7511 21.3678 95.7655 21.7073 95.7655 21.9745V27.4995H98.7555V20.9345C98.7555 20.7395 98.7411 20.4289 98.7122 20.0028C98.6833 19.5767 98.6002 19.1073 98.463 18.5945C98.3258 18.0745 98.0947 17.5762 97.7697 17.0995C97.4519 16.6228 97.0041 16.2292 96.4264 15.9187C95.8486 15.6081 95.1011 15.4528 94.1839 15.4528C93.0355 15.4528 92.0822 15.702 91.3239 16.2003C90.9721 16.4337 90.6616 16.7011 90.3922 17.0026V15.7995H87.7705V27.4995H90.7605V21.5628C90.7605 20.8334 90.84 20.2484 90.9989 19.8078C91.165 19.3673 91.3744 19.035 91.6272 18.8112C91.88 18.58 92.1508 18.4248 92.4397 18.3453C92.7286 18.2659 92.9994 18.2262 93.2522 18.2262C93.8805 18.2262 94.3644 18.367 94.7039 18.6487C95.0505 18.9303 95.2997 19.2806 95.4514 19.6995C95.603 20.1184 95.6933 20.5373 95.7222 20.9562Z" fill="#022C22"/>
<path d="M107.287 27.4995C106.478 27.6512 105.683 27.7162 104.903 27.6945C104.131 27.68 103.437 27.5464 102.823 27.2937C102.217 27.0337 101.754 26.6184 101.437 26.0478C101.148 25.5134 100.996 24.9717 100.982 24.4228C100.967 23.8667 100.96 23.2384 100.96 22.5378V18.0745H98.9666V15.7995H100.96V12.5495H103.907V15.7995H107.287V18.0745H103.907V22.3645C103.907 22.8195 103.91 23.2312 103.917 23.5995C103.932 23.9606 104.008 24.2495 104.145 24.4662C104.405 24.8778 104.82 25.1017 105.391 25.1378C105.961 25.1739 106.593 25.145 107.287 25.0512V27.4995Z" fill="#022C22"/>
<path d="M110.706 27.3803C111.284 27.6909 112.032 27.8462 112.949 27.8462C114.097 27.8462 115.047 27.597 115.798 27.0987C116.154 26.8644 116.469 26.5959 116.741 26.293V27.4995H119.341V15.7995H116.372V21.7362C116.372 22.4584 116.289 23.0434 116.123 23.4912C115.964 23.9317 115.758 24.2675 115.506 24.4987C115.253 24.7225 114.982 24.8742 114.693 24.9537C114.404 25.0331 114.133 25.0728 113.881 25.0728C113.252 25.0728 112.765 24.932 112.418 24.6503C112.079 24.3687 111.833 24.0184 111.681 23.5995C111.53 23.1806 111.439 22.7653 111.411 22.3537C111.382 21.9348 111.367 21.5917 111.367 21.3245V15.7995H108.377V22.3645C108.377 22.5595 108.392 22.87 108.421 23.2962C108.449 23.7223 108.532 24.1953 108.67 24.7153C108.807 25.2281 109.034 25.7228 109.352 26.1995C109.677 26.6762 110.129 27.0698 110.706 27.3803Z" fill="#022C22"/>
<path d="M137.069 16.7095C137.755 17.4967 138.098 18.5295 138.098 19.8078V27.4995H135.152V20.5878C135.152 19.815 134.967 19.2156 134.599 18.7895C134.238 18.3562 133.736 18.1395 133.093 18.1395C132.682 18.1395 132.324 18.237 132.021 18.432C131.717 18.6198 131.479 18.887 131.306 19.2337C131.14 19.5731 131.057 19.9667 131.057 20.4145V27.4995H128.11V20.5878C128.11 19.815 127.926 19.2156 127.557 18.7895C127.196 18.3562 126.694 18.1395 126.052 18.1395C125.438 18.1395 124.943 18.3525 124.567 18.7787C124.199 19.1975 124.015 19.7428 124.015 20.4145V27.4995H121.047V15.7995H123.647V17.0814C123.986 16.6633 124.401 16.3191 124.892 16.0487C125.542 15.6948 126.268 15.5178 127.07 15.5178C127.987 15.5178 128.738 15.7128 129.323 16.1028C129.812 16.4246 130.195 16.8349 130.472 17.3337C130.844 16.7841 131.324 16.3521 131.912 16.0378C132.555 15.6912 133.267 15.5178 134.047 15.5178C135.383 15.5178 136.39 15.915 137.069 16.7095Z" fill="#022C22"/>
<defs>
<filter id="filter0_iii_1202_6149" x="0" y="-3" width="40" height="46" filterUnits="userSpaceOnUse" color-interpolation-filters="sRGB">
<feFlood flood-opacity="0" result="BackgroundImageFix"/>
<feBlend mode="normal" in="SourceGraphic" in2="BackgroundImageFix" result="shape"/>
<feColorMatrix in="SourceAlpha" type="matrix" values="0 0 0 0 0 0 0 0 0 0 0 0 0 0 0 0 0 0 127 0" result="hardAlpha"/>
<feOffset dy="-3"/>
<feGaussianBlur stdDeviation="1.5"/>
<feComposite in2="hardAlpha" operator="arithmetic" k2="-1" k3="1"/>
<feColorMatrix type="matrix" values="0 0 0 0 0 0 0 0 0 0 0 0 0 0 0 0 0 0 0.1 0"/>
<feBlend mode="normal" in2="shape" result="effect1_innerShadow_1202_6149"/>
<feColorMatrix in="SourceAlpha" type="matrix" values="0 0 0 0 0 0 0 0 0 0 0 0 0 0 0 0 0 0 127 0" result="hardAlpha"/>
<feOffset dy="3"/>
<feGaussianBlur stdDeviation="1.5"/>
<feComposite in2="hardAlpha" operator="arithmetic" k2="-1" k3="1"/>
<feColorMatrix type="matrix" values="0 0 0 0 1 0 0 0 0 1 0 0 0 0 1 0 0 0 0.1 0"/>
<feBlend mode="normal" in2="effect1_innerShadow_1202_6149" result="effect2_innerShadow_1202_6149"/>
<feColorMatrix in="SourceAlpha" type="matrix" values="0 0 0 0 0 0 0 0 0 0 0 0 0 0 0 0 0 0 127 0" result="hardAlpha"/>
<feMorphology radius="1" operator="erode" in="SourceAlpha" result="effect3_innerShadow_1202_6149"/>
<feOffset/>
<feComposite in2="hardAlpha" operator="arithmetic" k2="-1" k3="1"/>
<feColorMatrix type="matrix" values="0 0 0 0 0.0627451 0 0 0 0 0.0941176 0 0 0 0 0.156863 0 0 0 0.24 0"/>
<feBlend mode="normal" in2="effect2_innerShadow_1202_6149" result="effect3_innerShadow_1202_6149"/>
</filter>
<filter id="filter1_d_1202_6149" x="7" y="7.25" width="25.5" height="30" filterUnits="userSpaceOnUse" color-interpolation-filters="sRGB">
<feFlood flood-opacity="0" result="BackgroundImageFix"/>
<feColorMatrix in="SourceAlpha" type="matrix" values="0 0 0 0 0 0 0 0 0 0 0 0 0 0 0 0 0 0 127 0" result="hardAlpha"/>
<feMorphology radius="1.5" operator="erode" in="SourceAlpha" result="effect1_dropShadow_1202_6149"/>
<feOffset dy="2.25"/>
<feGaussianBlur stdDeviation="2.25"/>
<feComposite in2="hardAlpha" operator="out"/>
<feColorMatrix type="matrix" values="0 0 0 0 0.141176 0 0 0 0 0.141176 0 0 0 0 0.141176 0 0 0 0.1 0"/>
<feBlend mode="normal" in2="BackgroundImageFix" result="effect1_dropShadow_1202_6149"/>
<feBlend mode="normal" in="SourceGraphic" in2="effect1_dropShadow_1202_6149" result="shape"/>
</filter>
<linearGradient id="paint0_linear_1202_6149" x1="20" y1="4.96706e-07" x2="21.6667" y2="40" gradientUnits="userSpaceOnUse">
<stop stop-color="white" stop-opacity="0"/>
<stop offset="1" stop-color="white" stop-opacity="0.12"/>
</linearGradient>
<linearGradient id="paint1_linear_1202_6149" x1="19.5" y1="10" x2="19.5" y2="29" gradientUnits="userSpaceOnUse">
<stop stop-color="#022C22" stop-opacity="0.8"/>
<stop offset="1" stop-color="#022C22" stop-opacity="0.5"/>
</linearGradient>
<linearGradient id="paint2_linear_1202_6149" x1="24.75" y1="19.5" x2="24.75" y2="29" gradientUnits="userSpaceOnUse">
<stop stop-color="#022C22" stop-opacity="0.8"/>
<stop offset="1" stop-color="#022C22" stop-opacity="0.5"/>
</linearGradient>
<clipPath id="clip0_1202_6149">
<rect width="40" height="40" rx="12" fill="white"/>
</clipPath>
</defs>
</svg>
